# xmcd CD database file
#
# Track frame offsets:
#	150
#	13629
#	23335
#	32819
#	44889
#	55321
#	67532
#	81911
#	90205
#	99641
#	110026
#	117386
#
# Disc length: 1687 seconds
#
# Revision: 0
# Processed by: cddbd v1.5.2PL0 Copyright (c) Steve Scherf et al.
# Submitted via: CDex 1.70beta2
#
DISCID=9106950c
DTITLE=Zenito and Zinol - Zenito and Zinol
DYEAR=1976
DGENRE=Country
TTITLE0=1) Adeus Gaúcho - Zenito/Zinol
TTITLE1=2) Rei do Catira - Zenito/Zinol
TTITLE2=3) Saudade da Maria - Zenito/Zinol
TTITLE3=4) Cabelo Crespo - Zenito/Zinol
TTITLE4=5) Desprezo da Ingrata - Zenito/Zinol
TTITLE5=6) Se Mexer Fica Pior - Zenito/Zinol
TTITLE6=7) Saudade das Mineiras - Zenito/Zinol
TTITLE7=8) Coselho de Caboclo - Zenito/Zinol
TTITLE8=9) Sinhozinho - Zenito/Zinol
TTITLE9=10) Convite de Um Fazendeiro - Zenito/Zinol
TTITLE10=11) Dança Antiga - Zenito/Zinol
TTITLE11=12) Sonho de Coroa - Zenito/Zinol 
EXTD=YEAR: 1976
EXTT0=
EXTT1=
EXTT2=
EXTT3=
EXTT4=
EXTT5=
EXTT6=
EXTT7=
EXTT8=
EXTT9=
EXTT10=
EXTT11=
PLAYORDER=
